name rise31.4854peak64.571fall78.6902.mot
datacolumns 19
datarows 21
range 18.16160300000000 18.19493500000000
endheader
time	ground_force1_vx	ground_force1_vy	ground_force1_vz	ground_force1_px	ground_force1_py	ground_force1_pz	ground_force2_vx	ground_force2_vy	ground_force2_vz	ground_force2_px	ground_force2_py	ground_force2_pz	ground_torque1_x	ground_torque1_y	ground_torque1_z	ground_torque2_x	ground_torque2_y	ground_torque2_z	
18.16160300000000	6.29846300000000	686.10490600000003	40.06026200000000	0.20262400000000	0.00000000000000	0.10835100000000	0.00000000000000	0.00000000000000	0.00000000000000	0.00000000000000	0.00000000000000	0.00000000000000	0.00000000000000	14.39827500000000	0.00000000000000	0.00000000000000	0.00000000000000	0.00000000000000	
18.16326200000000	5.89237700000000	686.96419700000001	40.12364500000000	0.20162300000000	0.00000000000000	0.10838000000000	0.00000000000000	0.00000000000000	0.00000000000000	0.00000000000000	0.00000000000000	0.00000000000000	0.00000000000000	14.45948300000000	0.00000000000000	0.00000000000000	0.00000000000000	0.00000000000000	
18.16493700000000	5.46885500000000	687.85011399999996	40.19033600000000	0.20059600000000	0.00000000000000	0.10841000000000	0.00000000000000	0.00000000000000	0.00000000000000	0.00000000000000	0.00000000000000	0.00000000000000	0.00000000000000	14.52548300000000	0.00000000000000	0.00000000000000	0.00000000000000	0.00000000000000	
18.16659500000000	5.02756900000000	688.76285499999994	40.26000400000000	0.19954400000000	0.00000000000000	0.10844200000000	0.00000000000000	0.00000000000000	0.00000000000000	0.00000000000000	0.00000000000000	0.00000000000000	0.00000000000000	14.59620400000000	0.00000000000000	0.00000000000000	0.00000000000000	0.00000000000000	
18.16826900000000	4.56823500000000	689.70274400000005	40.33233300000000	0.19846600000000	0.00000000000000	0.10847500000000	0.00000000000000	0.00000000000000	0.00000000000000	0.00000000000000	0.00000000000000	0.00000000000000	0.00000000000000	14.67157400000000	0.00000000000000	0.00000000000000	0.00000000000000	0.00000000000000	
18.16993200000000	4.09061700000000	690.67022699999995	40.40702700000000	0.19736400000000	0.00000000000000	0.10850900000000	0.00000000000000	0.00000000000000	0.00000000000000	0.00000000000000	0.00000000000000	0.00000000000000	0.00000000000000	14.75152600000000	0.00000000000000	0.00000000000000	0.00000000000000	0.00000000000000	
18.17159800000000	3.59452800000000	691.66586800000005	40.48380900000000	0.19623900000000	0.00000000000000	0.10854300000000	0.00000000000000	0.00000000000000	0.00000000000000	0.00000000000000	0.00000000000000	0.00000000000000	0.00000000000000	14.83599000000000	0.00000000000000	0.00000000000000	0.00000000000000	0.00000000000000	
18.17326500000000	3.07982600000000	692.69034599999998	40.56242200000000	0.19509200000000	0.00000000000000	0.10857900000000	0.00000000000000	0.00000000000000	0.00000000000000	0.00000000000000	0.00000000000000	0.00000000000000	0.00000000000000	14.92490100000000	0.00000000000000	0.00000000000000	0.00000000000000	0.00000000000000	
18.17493400000000	2.54642000000000	693.74444900000003	40.64262900000000	0.19392400000000	0.00000000000000	0.10861400000000	0.00000000000000	0.00000000000000	0.00000000000000	0.00000000000000	0.00000000000000	0.00000000000000	0.00000000000000	15.01819200000000	0.00000000000000	0.00000000000000	0.00000000000000	0.00000000000000	
18.17660000000000	1.99426400000000	694.82906600000001	40.72421900000000	0.19273600000000	0.00000000000000	0.10865100000000	0.00000000000000	0.00000000000000	0.00000000000000	0.00000000000000	0.00000000000000	0.00000000000000	0.00000000000000	15.11579800000000	0.00000000000000	0.00000000000000	0.00000000000000	0.00000000000000	
18.17826200000000	1.42336300000000	695.94518400000004	40.80699900000000	0.19153100000000	0.00000000000000	0.10868800000000	0.00000000000000	0.00000000000000	0.00000000000000	0.00000000000000	0.00000000000000	0.00000000000000	0.00000000000000	15.21765300000000	0.00000000000000	0.00000000000000	0.00000000000000	0.00000000000000	
18.17992900000000	0.83376700000000	697.09387500000003	40.89080400000000	0.19030900000000	0.00000000000000	0.10872500000000	0.00000000000000	0.00000000000000	0.00000000000000	0.00000000000000	0.00000000000000	0.00000000000000	0.00000000000000	15.32369400000000	0.00000000000000	0.00000000000000	0.00000000000000	0.00000000000000	
18.18159600000000	0.22557200000000	698.27629300000001	40.97549200000000	0.18907200000000	0.00000000000000	0.10876200000000	0.00000000000000	0.00000000000000	0.00000000000000	0.00000000000000	0.00000000000000	0.00000000000000	0.00000000000000	15.43385400000000	0.00000000000000	0.00000000000000	0.00000000000000	0.00000000000000	
18.18326600000000	-0.40107800000000	699.49366199999997	41.06094700000000	0.18782200000000	0.00000000000000	0.10879900000000	0.00000000000000	0.00000000000000	0.00000000000000	0.00000000000000	0.00000000000000	0.00000000000000	0.00000000000000	15.54806900000000	0.00000000000000	0.00000000000000	0.00000000000000	0.00000000000000	
18.18493400000000	-1.04599400000000	700.74726399999997	41.14707800000000	0.18656000000000	0.00000000000000	0.10883600000000	0.00000000000000	0.00000000000000	0.00000000000000	0.00000000000000	0.00000000000000	0.00000000000000	0.00000000000000	15.66626900000000	0.00000000000000	0.00000000000000	0.00000000000000	0.00000000000000	
18.18659800000000	-1.70894200000000	702.03843500000005	41.23382000000000	0.18528800000000	0.00000000000000	0.10887300000000	0.00000000000000	0.00000000000000	0.00000000000000	0.00000000000000	0.00000000000000	0.00000000000000	0.00000000000000	15.78838800000000	0.00000000000000	0.00000000000000	0.00000000000000	0.00000000000000	
18.18826400000000	-2.38964400000000	703.36854700000004	41.32113700000000	0.18400800000000	0.00000000000000	0.10891000000000	0.00000000000000	0.00000000000000	0.00000000000000	0.00000000000000	0.00000000000000	0.00000000000000	0.00000000000000	15.91435500000000	0.00000000000000	0.00000000000000	0.00000000000000	0.00000000000000	
18.18993500000000	-3.08778000000000	704.73900100000003	41.40901600000000	0.18272100000000	0.00000000000000	0.10894700000000	0.00000000000000	0.00000000000000	0.00000000000000	0.00000000000000	0.00000000000000	0.00000000000000	0.00000000000000	16.04409700000000	0.00000000000000	0.00000000000000	0.00000000000000	0.00000000000000	
18.19159700000000	-3.80298700000000	706.15121099999999	41.49747300000000	0.18142900000000	0.00000000000000	0.10898300000000	0.00000000000000	0.00000000000000	0.00000000000000	0.00000000000000	0.00000000000000	0.00000000000000	0.00000000000000	16.17753700000000	0.00000000000000	0.00000000000000	0.00000000000000	0.00000000000000	
18.19326900000000	-4.53486000000000	707.60659699999997	41.58655200000000	0.18013300000000	0.00000000000000	0.10901900000000	0.00000000000000	0.00000000000000	0.00000000000000	0.00000000000000	0.00000000000000	0.00000000000000	0.00000000000000	16.31459600000000	0.00000000000000	0.00000000000000	0.00000000000000	0.00000000000000	
18.19493500000000	-5.28295700000000	709.10656700000004	41.67632200000000	0.17883600000000	0.00000000000000	0.10905400000000	0.00000000000000	0.00000000000000	0.00000000000000	0.00000000000000	0.00000000000000	0.00000000000000	0.00000000000000	16.45519300000000	0.00000000000000	0.00000000000000	0.00000000000000	0.00000000000000	
